<?xml version="1.0" standalone="no"?>
<!DOCTYPE svg PUBLIC "-//W3C//DTD SVG 20010904//EN"
 "http://www.w3.org/TR/2001/REC-SVG-20010904/DTD/svg10.dtd">
<svg version="1.0" xmlns="http://www.w3.org/2000/svg"
 width="500.000000pt" height="500.000000pt" viewBox="0 0 500.000000 500.000000"
 preserveAspectRatio="xMidYMid meet">

<g transform="translate(0.000000,500.000000) scale(0.100000,-0.100000)"
fill="#000000" stroke="none">
<path d="M2390 3053 c-37 -14 -60 -47 -60 -84 0 -43 8 -51 74 -76 58 -21 68
-38 32 -54 -20 -9 -35 -8 -71 3 -44 15 -46 15 -60 -5 -8 -12 -15 -25 -15 -28
0 -16 75 -31 132 -27 70 5 111 37 111 87 0 41 -18 59 -69 72 -50 13 -73 34
-56 51 13 13 57 15 95 5 23 -6 29 -4 39 18 6 14 8 28 4 32 -9 9 -136 14 -156
6z"/>
<path d="M2615 3048 c-2 -7 -13 -62 -25 -123 -12 -60 -24 -118 -26 -127 -4
-15 1 -18 33 -18 l39 0 23 118 c12 64 25 127 28 140 5 20 1 22 -31 22 -20 0
-38 -6 -41 -12z"/>
<path d="M2794 3040 c-68 -35 -102 -122 -74 -194 15 -40 66 -66 130 -66 81 1
103 17 116 84 l11 56 -32 0 c-30 0 -34 -4 -42 -37 -7 -29 -14 -39 -32 -41 -67
-10 -104 38 -78 101 9 19 24 40 35 46 26 14 89 14 97 1 10 -16 40 -12 59 8 15
18 15 20 -4 37 -32 29 -134 32 -186 5z"/>
<path d="M3055 3038 c-3 -13 -16 -76 -29 -140 l-23 -118 37 0 38 0 13 70 c7
39 15 73 19 75 3 2 26 -30 50 -71 40 -66 48 -74 75 -74 l31 0 23 118 c12 64
25 127 28 140 5 22 3 23 -33 20 l-39 -3 -12 -69 c-7 -38 -15 -71 -17 -73 -2
-2 -24 29 -48 69 -38 63 -49 73 -76 76 -26 3 -32 -1 -37 -20z"/>
<path d="M3356 2928 c-14 -73 -26 -136 -26 -140 0 -5 16 -8 35 -8 39 0 33 -14
69 163 l23 117 -37 0 -37 0 -27 -132z"/>
<path d="M3515 3048 c-2 -7 -13 -62 -25 -123 -12 -60 -24 -118 -26 -127 -4
-15 1 -18 34 -18 l39 0 13 75 c7 41 16 72 20 70 4 -3 26 -36 50 -75 39 -66 44
-71 73 -68 l31 3 21 105 c12 58 24 120 28 138 6 32 6 32 -32 32 l-38 0 -13
-75 c-7 -41 -16 -72 -20 -70 -4 3 -27 36 -50 75 -37 61 -46 70 -71 70 -17 0
-31 -6 -34 -12z"/>
<path d="M3876 3037 c-78 -44 -103 -157 -48 -218 24 -27 37 -33 84 -37 60 -5
123 11 131 32 3 7 9 34 12 60 l7 46 -31 0 c-25 0 -32 -5 -37 -27 -11 -50 -13
-53 -49 -53 -75 0 -100 85 -40 138 30 26 90 30 115 7 14 -13 19 -11 45 9 l29
24 -34 21 c-48 29 -131 28 -184 -2z"/>
<path d="M1303 3028 c-6 -7 -54 -89 -107 -181 l-97 -168 51 -90 52 -89 88 0
88 0 46 80 c25 43 46 84 46 90 0 6 -31 10 -80 10 -44 0 -80 3 -80 8 1 4 22 43
48 87 l48 80 414 3 415 2 48 84 c26 46 47 86 47 90 0 3 -229 6 -509 6 -395 0
-511 -3 -518 -12z"/>
<path d="M1582 2798 c-105 -174 -252 -440 -247 -448 9 -15 168 -13 187 3 13 9
208 343 267 455 l12 22 -100 0 -99 0 -20 -32z"/>
<path d="M2060 2696 c0 -8 -3 -21 -6 -30 -5 -13 2 -16 35 -16 49 0 49 -2 22
-132 l-18 -88 37 0 37 0 13 63 c6 34 16 83 22 110 l10 47 44 0 c31 0 44 4 44
14 0 8 3 21 6 30 5 14 -9 16 -120 16 -102 0 -126 -3 -126 -14z"/>
<path d="M2321 2593 c-12 -65 -25 -128 -28 -140 -5 -23 -4 -23 105 -23 105 0
110 1 116 23 3 12 6 25 6 30 0 4 -31 7 -70 7 -68 0 -70 1 -70 25 0 24 2 25 64
25 58 0 64 2 70 23 3 12 6 25 6 30 0 4 -27 7 -61 7 -57 0 -60 1 -57 23 3 20 9
22 76 25 53 2 72 6 72 17 0 7 3 20 6 29 5 14 -8 16 -103 16 l-109 0 -23 -117z"/>
<path d="M2649 2689 c-92 -55 -107 -190 -27 -239 42 -25 128 -27 169 -3 33 20
36 33 12 56 -16 13 -20 14 -37 1 -21 -15 -74 -19 -92 -6 -6 4 -16 17 -23 30
-16 29 1 85 32 107 28 19 76 19 98 -1 15 -14 19 -13 44 8 l27 23 -22 20 c-33
30 -134 32 -181 4z"/>
<path d="M2905 2698 c-2 -7 -13 -62 -25 -123 -12 -60 -24 -118 -26 -127 -4
-15 1 -18 34 -18 l39 0 9 53 9 52 58 3 c53 3 58 1 53 -15 -3 -10 -8 -35 -12
-56 l-6 -38 38 3 38 3 21 105 c12 58 24 120 28 138 6 32 6 32 -32 32 -37 0
-39 -2 -45 -37 -13 -74 -13 -73 -72 -73 -48 0 -55 2 -51 18 3 9 8 34 12 55 l6
37 -36 0 c-20 0 -37 -6 -40 -12z"/>
<path d="M1753 2673 c-10 -7 -103 -158 -103 -168 0 -2 38 -6 85 -7 l85 -3 -49
-85 -48 -85 -417 -5 -417 -5 -48 -85 -49 -85 511 -3 c281 -1 514 1 518 5 18
19 199 342 199 354 -1 8 -22 50 -48 94 l-48 80 -79 3 c-44 1 -85 -1 -92 -5z"/>
<path d="M1994 2330 c-27 -11 -64 -57 -64 -80 0 -30 32 -60 84 -78 57 -20 68
-37 33 -53 -23 -10 -58 -5 -108 15 -10 5 -19 -1 -27 -19 -7 -14 -12 -28 -12
-29 0 -10 69 -26 112 -26 82 0 128 35 128 98 0 36 -10 44 -77 66 -32 11 -53
23 -53 32 0 16 42 36 62 30 53 -17 67 -16 79 6 10 18 8 24 -7 35 -20 14 -117
17 -150 3z"/>
<path d="M2196 2208 c-14 -73 -26 -136 -26 -140 0 -5 50 -8 110 -8 88 0 110 3
110 14 0 8 3 21 6 30 5 14 -5 16 -71 16 -66 0 -76 2 -71 16 3 9 6 20 6 25 0 5
29 9 65 9 49 0 65 3 65 14 0 8 3 21 6 30 5 14 -3 16 -55 16 -58 0 -61 1 -61
25 0 24 2 25 74 25 l74 0 4 30 5 30 -107 0 -107 0 -27 -132z"/>
<path d="M2485 2318 c-3 -13 -16 -76 -29 -140 l-23 -118 37 0 c36 0 39 2 47
38 13 53 41 54 71 2 20 -35 27 -40 57 -40 41 0 42 4 14 49 -11 18 -19 34 -17
35 2 1 15 10 30 19 35 22 54 81 39 120 -15 38 -65 57 -150 57 -65 0 -71 -2
-76 -22z m143 -50 c31 -31 -6 -78 -60 -78 -30 0 -32 7 -22 59 6 27 11 31 38
31 18 0 37 -5 44 -12z"/>
<path d="M2784 2203 l32 -138 38 0 c39 0 39 0 122 130 46 72 83 134 83 138 1
5 -16 7 -36 5 -35 -3 -41 -8 -92 -91 -30 -48 -56 -85 -58 -83 -2 2 -11 33 -19
67 -8 35 -16 74 -19 87 -4 18 -12 22 -44 22 l-38 0 31 -137z"/>
<path d="M3066 2208 c-14 -73 -26 -136 -26 -140 0 -5 16 -8 35 -8 39 0 33 -14
69 163 l23 117 -37 0 -37 0 -27 -132z"/>
<path d="M3274 2326 c-59 -26 -101 -109 -88 -174 3 -17 19 -43 35 -58 40 -39
137 -46 188 -14 l33 21 -22 24 c-21 22 -25 23 -44 10 -28 -21 -80 -19 -99 3
-61 67 44 180 118 128 18 -12 24 -11 49 9 l29 23 -34 21 c-40 24 -117 28 -165
7z"/>
<path d="M3496 2208 c-14 -73 -26 -136 -26 -140 0 -5 50 -8 110 -8 88 0 110 3
110 14 0 8 3 21 6 30 5 14 -5 16 -71 16 -66 0 -76 2 -71 16 3 9 6 20 6 25 0 5
29 9 64 9 63 0 64 0 68 30 l5 30 -59 0 c-55 0 -58 1 -58 25 0 24 2 25 74 25
l74 0 4 30 5 30 -107 0 -107 0 -27 -132z"/>
<path d="M3808 2324 c-51 -27 -64 -88 -27 -123 11 -10 41 -24 65 -30 32 -8 44
-16 44 -30 0 -26 -39 -33 -93 -17 -44 13 -45 13 -58 -10 -19 -36 0 -48 80 -52
99 -6 151 26 151 91 0 31 -25 53 -83 73 -50 17 -60 37 -27 54 14 8 31 8 58 0
49 -13 47 -14 60 15 11 23 9 27 -14 35 -37 15 -125 11 -156 -6z"/>
<path d="M1172 2088 c-6 -13 -25 -47 -42 -76 l-31 -53 103 3 102 3 43 73 43
72 -104 0 c-97 0 -103 -1 -114 -22z"/>
</g>
</svg>
